<mxfile host="Electron" agent="Mozilla/5.0 (Macintosh; Intel Mac OS X 10_15_7) AppleWebKit/537.36 (KHTML, like Gecko) draw.io/24.7.17 Chrome/128.0.6613.36 Electron/32.0.1 Safari/537.36" version="24.7.17">
  <diagram name="Page-1" id="fAzxgqy2YoCa_CYMwOZg">
    <mxGraphModel dx="626" dy="752" grid="1" gridSize="10" guides="1" tooltips="1" connect="1" arrows="1" fold="1" page="1" pageScale="1" pageWidth="1169" pageHeight="827" math="0" shadow="0">
      <root>
        <mxCell id="0" />
        <mxCell id="1" parent="0" />
        <mxCell id="N1I75fCflC0etXuEol2k-2" value="USER" style="ellipse;whiteSpace=wrap;html=1;aspect=fixed;" vertex="1" parent="1">
          <mxGeometry x="460" y="70" width="80" height="80" as="geometry" />
        </mxCell>
        <mxCell id="N1I75fCflC0etXuEol2k-3" value="Update Trip Interface" style="rounded=0;whiteSpace=wrap;html=1;" vertex="1" parent="1">
          <mxGeometry x="435" y="200" width="150" height="50" as="geometry" />
        </mxCell>
        <mxCell id="N1I75fCflC0etXuEol2k-4" value="Delete Trip Interface" style="rounded=0;whiteSpace=wrap;html=1;" vertex="1" parent="1">
          <mxGeometry x="690" y="190" width="150" height="50" as="geometry" />
        </mxCell>
        <mxCell id="N1I75fCflC0etXuEol2k-5" value="delete_trip" style="ellipse;whiteSpace=wrap;html=1;aspect=fixed;" vertex="1" parent="1">
          <mxGeometry x="860" y="400" width="120" height="120" as="geometry" />
        </mxCell>
        <mxCell id="N1I75fCflC0etXuEol2k-6" value="Trip Collection" style="ellipse;whiteSpace=wrap;html=1;" vertex="1" parent="1">
          <mxGeometry x="420" y="590" width="120" height="80" as="geometry" />
        </mxCell>
        <mxCell id="N1I75fCflC0etXuEol2k-7" value="View_trips" style="ellipse;whiteSpace=wrap;html=1;aspect=fixed;" vertex="1" parent="1">
          <mxGeometry x="330" y="320" width="120" height="120" as="geometry" />
        </mxCell>
        <mxCell id="N1I75fCflC0etXuEol2k-8" value="Create Trip Interface" style="rounded=0;whiteSpace=wrap;html=1;" vertex="1" parent="1">
          <mxGeometry x="20" y="190" width="150" height="50" as="geometry" />
        </mxCell>
        <mxCell id="N1I75fCflC0etXuEol2k-9" value="create_trip" style="ellipse;whiteSpace=wrap;html=1;aspect=fixed;" vertex="1" parent="1">
          <mxGeometry x="20" y="330" width="120" height="120" as="geometry" />
        </mxCell>
        <mxCell id="N1I75fCflC0etXuEol2k-10" value="UUID Generator" style="rhombus;whiteSpace=wrap;html=1;" vertex="1" parent="1">
          <mxGeometry x="10" y="530" width="130" height="120" as="geometry" />
        </mxCell>
        <mxCell id="N1I75fCflC0etXuEol2k-11" value="Input Validator" style="rhombus;whiteSpace=wrap;html=1;" vertex="1" parent="1">
          <mxGeometry x="180" y="530" width="130" height="120" as="geometry" />
        </mxCell>
        <mxCell id="N1I75fCflC0etXuEol2k-12" value="" style="endArrow=classic;startArrow=classic;html=1;rounded=0;entryX=0.5;entryY=0;entryDx=0;entryDy=0;" edge="1" parent="1" target="N1I75fCflC0etXuEol2k-4">
          <mxGeometry width="50" height="50" relative="1" as="geometry">
            <mxPoint x="540" y="125" as="sourcePoint" />
            <mxPoint x="765" y="205" as="targetPoint" />
            <Array as="points">
              <mxPoint x="670" y="125" />
            </Array>
          </mxGeometry>
        </mxCell>
        <mxCell id="N1I75fCflC0etXuEol2k-13" value="" style="endArrow=classic;startArrow=classic;html=1;rounded=0;entryX=0.5;entryY=1;entryDx=0;entryDy=0;exitX=0.5;exitY=0;exitDx=0;exitDy=0;" edge="1" parent="1" source="N1I75fCflC0etXuEol2k-3" target="N1I75fCflC0etXuEol2k-2">
          <mxGeometry width="50" height="50" relative="1" as="geometry">
            <mxPoint x="110" y="200" as="sourcePoint" />
            <mxPoint x="470" y="110" as="targetPoint" />
            <Array as="points" />
          </mxGeometry>
        </mxCell>
        <mxCell id="N1I75fCflC0etXuEol2k-14" value="" style="endArrow=classic;startArrow=classic;html=1;rounded=0;entryX=0;entryY=0.5;entryDx=0;entryDy=0;exitX=0.75;exitY=0;exitDx=0;exitDy=0;" edge="1" parent="1" source="N1I75fCflC0etXuEol2k-8" target="N1I75fCflC0etXuEol2k-2">
          <mxGeometry width="50" height="50" relative="1" as="geometry">
            <mxPoint x="120" y="210" as="sourcePoint" />
            <mxPoint x="480" y="120" as="targetPoint" />
            <Array as="points">
              <mxPoint x="280" y="100" />
            </Array>
          </mxGeometry>
        </mxCell>
        <mxCell id="N1I75fCflC0etXuEol2k-15" value="Initiates" style="text;html=1;align=center;verticalAlign=middle;whiteSpace=wrap;rounded=0;" vertex="1" parent="1">
          <mxGeometry x="80" y="150" width="60" height="30" as="geometry" />
        </mxCell>
        <mxCell id="N1I75fCflC0etXuEol2k-16" value="Initiates" style="text;html=1;align=center;verticalAlign=middle;whiteSpace=wrap;rounded=0;" vertex="1" parent="1">
          <mxGeometry x="555" y="160" width="60" height="30" as="geometry" />
        </mxCell>
        <mxCell id="N1I75fCflC0etXuEol2k-17" value="Initiates" style="text;html=1;align=center;verticalAlign=middle;whiteSpace=wrap;rounded=0;" vertex="1" parent="1">
          <mxGeometry x="620" y="95" width="60" height="30" as="geometry" />
        </mxCell>
        <mxCell id="N1I75fCflC0etXuEol2k-18" value="" style="endArrow=classic;html=1;rounded=0;exitX=0.5;exitY=1;exitDx=0;exitDy=0;entryX=0.5;entryY=0;entryDx=0;entryDy=0;" edge="1" parent="1" source="N1I75fCflC0etXuEol2k-8" target="N1I75fCflC0etXuEol2k-9">
          <mxGeometry width="50" height="50" relative="1" as="geometry">
            <mxPoint x="180" y="390" as="sourcePoint" />
            <mxPoint x="230" y="340" as="targetPoint" />
          </mxGeometry>
        </mxCell>
        <mxCell id="N1I75fCflC0etXuEol2k-19" value="Calls" style="text;html=1;align=center;verticalAlign=middle;whiteSpace=wrap;rounded=0;" vertex="1" parent="1">
          <mxGeometry x="90" y="300" width="60" height="30" as="geometry" />
        </mxCell>
        <mxCell id="N1I75fCflC0etXuEol2k-20" value="" style="endArrow=classic;html=1;rounded=0;exitX=0.36;exitY=1.01;exitDx=0;exitDy=0;entryX=0.5;entryY=0;entryDx=0;entryDy=0;exitPerimeter=0;" edge="1" parent="1" source="N1I75fCflC0etXuEol2k-3">
          <mxGeometry width="50" height="50" relative="1" as="geometry">
            <mxPoint x="517" y="300" as="sourcePoint" />
            <mxPoint x="560" y="350" as="targetPoint" />
          </mxGeometry>
        </mxCell>
        <mxCell id="N1I75fCflC0etXuEol2k-21" value="Calls" style="text;html=1;align=center;verticalAlign=middle;whiteSpace=wrap;rounded=0;" vertex="1" parent="1">
          <mxGeometry x="480" y="290" width="60" height="30" as="geometry" />
        </mxCell>
        <mxCell id="N1I75fCflC0etXuEol2k-22" value="Update_trip" style="ellipse;whiteSpace=wrap;html=1;aspect=fixed;" vertex="1" parent="1">
          <mxGeometry x="560" y="300" width="120" height="120" as="geometry" />
        </mxCell>
        <mxCell id="N1I75fCflC0etXuEol2k-23" value="View Trip Interface" style="rounded=0;whiteSpace=wrap;html=1;" vertex="1" parent="1">
          <mxGeometry x="270" y="200" width="150" height="50" as="geometry" />
        </mxCell>
        <mxCell id="N1I75fCflC0etXuEol2k-24" value="" style="endArrow=classic;startArrow=classic;html=1;rounded=0;exitX=0.5;exitY=0;exitDx=0;exitDy=0;entryX=0;entryY=1;entryDx=0;entryDy=0;" edge="1" parent="1" source="N1I75fCflC0etXuEol2k-23" target="N1I75fCflC0etXuEol2k-2">
          <mxGeometry width="50" height="50" relative="1" as="geometry">
            <mxPoint x="143" y="200" as="sourcePoint" />
            <mxPoint x="460" y="130" as="targetPoint" />
            <Array as="points">
              <mxPoint x="400" y="160" />
            </Array>
          </mxGeometry>
        </mxCell>
        <mxCell id="N1I75fCflC0etXuEol2k-25" value="Initiates" style="text;html=1;align=center;verticalAlign=middle;whiteSpace=wrap;rounded=0;" vertex="1" parent="1">
          <mxGeometry x="300" y="170" width="60" height="30" as="geometry" />
        </mxCell>
        <mxCell id="N1I75fCflC0etXuEol2k-26" value="" style="endArrow=classic;html=1;rounded=0;entryX=0.5;entryY=0;entryDx=0;entryDy=0;exitX=0.5;exitY=1;exitDx=0;exitDy=0;" edge="1" parent="1" source="N1I75fCflC0etXuEol2k-23" target="N1I75fCflC0etXuEol2k-7">
          <mxGeometry width="50" height="50" relative="1" as="geometry">
            <mxPoint x="340" y="310" as="sourcePoint" />
            <mxPoint x="390" y="260" as="targetPoint" />
          </mxGeometry>
        </mxCell>
        <mxCell id="N1I75fCflC0etXuEol2k-27" value="Calls" style="text;html=1;align=center;verticalAlign=middle;whiteSpace=wrap;rounded=0;" vertex="1" parent="1">
          <mxGeometry x="320" y="290" width="60" height="30" as="geometry" />
        </mxCell>
        <mxCell id="N1I75fCflC0etXuEol2k-28" value="" style="endArrow=classic;html=1;rounded=0;entryX=0.5;entryY=0;entryDx=0;entryDy=0;exitX=0;exitY=1;exitDx=0;exitDy=0;" edge="1" parent="1" source="N1I75fCflC0etXuEol2k-9" target="N1I75fCflC0etXuEol2k-10">
          <mxGeometry width="50" height="50" relative="1" as="geometry">
            <mxPoint x="290" y="510" as="sourcePoint" />
            <mxPoint x="340" y="460" as="targetPoint" />
          </mxGeometry>
        </mxCell>
        <mxCell id="N1I75fCflC0etXuEol2k-29" value="Generates ID using" style="text;html=1;align=center;verticalAlign=middle;whiteSpace=wrap;rounded=0;" vertex="1" parent="1">
          <mxGeometry x="65" y="470" width="60" height="30" as="geometry" />
        </mxCell>
        <mxCell id="N1I75fCflC0etXuEol2k-30" value="" style="endArrow=classic;html=1;rounded=0;exitX=1;exitY=1;exitDx=0;exitDy=0;entryX=0;entryY=0;entryDx=0;entryDy=0;" edge="1" parent="1" source="N1I75fCflC0etXuEol2k-9" target="N1I75fCflC0etXuEol2k-11">
          <mxGeometry width="50" height="50" relative="1" as="geometry">
            <mxPoint x="290" y="510" as="sourcePoint" />
            <mxPoint x="340" y="460" as="targetPoint" />
          </mxGeometry>
        </mxCell>
        <mxCell id="N1I75fCflC0etXuEol2k-31" value="Validates Input with" style="text;html=1;align=center;verticalAlign=middle;whiteSpace=wrap;rounded=0;" vertex="1" parent="1">
          <mxGeometry x="160" y="460" width="60" height="30" as="geometry" />
        </mxCell>
        <mxCell id="N1I75fCflC0etXuEol2k-32" value="" style="endArrow=classic;html=1;rounded=0;exitX=0.963;exitY=0.708;exitDx=0;exitDy=0;exitPerimeter=0;entryX=0;entryY=0;entryDx=0;entryDy=0;" edge="1" parent="1" source="N1I75fCflC0etXuEol2k-9" target="N1I75fCflC0etXuEol2k-6">
          <mxGeometry width="50" height="50" relative="1" as="geometry">
            <mxPoint x="290" y="510" as="sourcePoint" />
            <mxPoint x="340" y="460" as="targetPoint" />
          </mxGeometry>
        </mxCell>
        <mxCell id="N1I75fCflC0etXuEol2k-33" value="Stores in" style="text;html=1;align=center;verticalAlign=middle;whiteSpace=wrap;rounded=0;" vertex="1" parent="1">
          <mxGeometry x="250" y="460" width="60" height="30" as="geometry" />
        </mxCell>
        <mxCell id="N1I75fCflC0etXuEol2k-34" value="" style="endArrow=classic;html=1;rounded=0;exitX=0;exitY=1;exitDx=0;exitDy=0;" edge="1" parent="1" source="N1I75fCflC0etXuEol2k-22" target="N1I75fCflC0etXuEol2k-11">
          <mxGeometry width="50" height="50" relative="1" as="geometry">
            <mxPoint x="290" y="510" as="sourcePoint" />
            <mxPoint x="340" y="460" as="targetPoint" />
          </mxGeometry>
        </mxCell>
        <mxCell id="N1I75fCflC0etXuEol2k-35" value="" style="endArrow=classic;html=1;rounded=0;entryX=0.5;entryY=0;entryDx=0;entryDy=0;exitX=0.5;exitY=1;exitDx=0;exitDy=0;" edge="1" parent="1" source="N1I75fCflC0etXuEol2k-7" target="N1I75fCflC0etXuEol2k-6">
          <mxGeometry width="50" height="50" relative="1" as="geometry">
            <mxPoint x="290" y="510" as="sourcePoint" />
            <mxPoint x="340" y="460" as="targetPoint" />
          </mxGeometry>
        </mxCell>
        <mxCell id="N1I75fCflC0etXuEol2k-36" value="Retrieves from" style="text;html=1;align=center;verticalAlign=middle;whiteSpace=wrap;rounded=0;" vertex="1" parent="1">
          <mxGeometry x="450" y="530" width="60" height="30" as="geometry" />
        </mxCell>
        <mxCell id="N1I75fCflC0etXuEol2k-37" value="" style="endArrow=classic;html=1;rounded=0;entryX=1;entryY=0;entryDx=0;entryDy=0;exitX=0.5;exitY=1;exitDx=0;exitDy=0;" edge="1" parent="1" source="N1I75fCflC0etXuEol2k-22" target="N1I75fCflC0etXuEol2k-6">
          <mxGeometry width="50" height="50" relative="1" as="geometry">
            <mxPoint x="550" y="510" as="sourcePoint" />
            <mxPoint x="600" y="460" as="targetPoint" />
          </mxGeometry>
        </mxCell>
        <mxCell id="N1I75fCflC0etXuEol2k-38" value="Searches in" style="text;html=1;align=center;verticalAlign=middle;whiteSpace=wrap;rounded=0;" vertex="1" parent="1">
          <mxGeometry x="570" y="510" width="60" height="30" as="geometry" />
        </mxCell>
        <mxCell id="N1I75fCflC0etXuEol2k-39" value="" style="endArrow=classic;html=1;rounded=0;entryX=1;entryY=0.5;entryDx=0;entryDy=0;" edge="1" parent="1" target="N1I75fCflC0etXuEol2k-6">
          <mxGeometry width="50" height="50" relative="1" as="geometry">
            <mxPoint x="650" y="414" as="sourcePoint" />
            <mxPoint x="690" y="600" as="targetPoint" />
            <Array as="points">
              <mxPoint x="620" y="560" />
            </Array>
          </mxGeometry>
        </mxCell>
        <mxCell id="N1I75fCflC0etXuEol2k-40" value="Updates in" style="text;html=1;align=center;verticalAlign=middle;whiteSpace=wrap;rounded=0;" vertex="1" parent="1">
          <mxGeometry x="590" y="580" width="60" height="30" as="geometry" />
        </mxCell>
        <mxCell id="N1I75fCflC0etXuEol2k-41" value="" style="endArrow=classic;html=1;rounded=0;entryX=1;entryY=1;entryDx=0;entryDy=0;exitX=0.5;exitY=1;exitDx=0;exitDy=0;" edge="1" parent="1" source="N1I75fCflC0etXuEol2k-5" target="N1I75fCflC0etXuEol2k-6">
          <mxGeometry width="50" height="50" relative="1" as="geometry">
            <mxPoint x="660" y="670" as="sourcePoint" />
            <mxPoint x="710" y="620" as="targetPoint" />
            <Array as="points">
              <mxPoint x="770" y="740" />
            </Array>
          </mxGeometry>
        </mxCell>
        <mxCell id="N1I75fCflC0etXuEol2k-42" value="" style="endArrow=classic;html=1;rounded=0;entryX=1.025;entryY=0.613;entryDx=0;entryDy=0;entryPerimeter=0;exitX=0;exitY=1;exitDx=0;exitDy=0;" edge="1" parent="1" source="N1I75fCflC0etXuEol2k-5" target="N1I75fCflC0etXuEol2k-6">
          <mxGeometry width="50" height="50" relative="1" as="geometry">
            <mxPoint x="740" y="630" as="sourcePoint" />
            <mxPoint x="790" y="580" as="targetPoint" />
            <Array as="points">
              <mxPoint x="730" y="610" />
            </Array>
          </mxGeometry>
        </mxCell>
        <mxCell id="N1I75fCflC0etXuEol2k-43" value="Removes from" style="text;html=1;align=center;verticalAlign=middle;whiteSpace=wrap;rounded=0;" vertex="1" parent="1">
          <mxGeometry x="690" y="730" width="60" height="30" as="geometry" />
        </mxCell>
        <mxCell id="N1I75fCflC0etXuEol2k-44" value="Searches in" style="text;html=1;align=center;verticalAlign=middle;whiteSpace=wrap;rounded=0;" vertex="1" parent="1">
          <mxGeometry x="690" y="620" width="60" height="30" as="geometry" />
        </mxCell>
        <mxCell id="N1I75fCflC0etXuEol2k-45" value="" style="endArrow=classic;html=1;rounded=0;entryX=1;entryY=1;entryDx=0;entryDy=0;" edge="1" parent="1" target="N1I75fCflC0etXuEol2k-2">
          <mxGeometry width="50" height="50" relative="1" as="geometry">
            <mxPoint x="650" y="310" as="sourcePoint" />
            <mxPoint x="726" y="137.51999999999998" as="targetPoint" />
            <Array as="points">
              <mxPoint x="660" y="180" />
            </Array>
          </mxGeometry>
        </mxCell>
        <mxCell id="N1I75fCflC0etXuEol2k-46" value="Confirms update to" style="text;html=1;align=center;verticalAlign=middle;whiteSpace=wrap;rounded=0;" vertex="1" parent="1">
          <mxGeometry x="650" y="260" width="60" height="30" as="geometry" />
        </mxCell>
        <mxCell id="N1I75fCflC0etXuEol2k-48" value="" style="endArrow=classic;html=1;rounded=0;entryX=1;entryY=1;entryDx=0;entryDy=0;exitX=0.5;exitY=0;exitDx=0;exitDy=0;" edge="1" parent="1" source="N1I75fCflC0etXuEol2k-22" target="N1I75fCflC0etXuEol2k-2">
          <mxGeometry width="50" height="50" relative="1" as="geometry">
            <mxPoint x="510" y="150" as="sourcePoint" />
            <mxPoint x="560" y="100" as="targetPoint" />
            <Array as="points">
              <mxPoint x="580" y="210" />
            </Array>
          </mxGeometry>
        </mxCell>
        <mxCell id="N1I75fCflC0etXuEol2k-49" value="Requests ID from" style="text;html=1;align=center;verticalAlign=middle;whiteSpace=wrap;rounded=0;" vertex="1" parent="1">
          <mxGeometry x="530" y="260" width="60" height="30" as="geometry" />
        </mxCell>
        <mxCell id="N1I75fCflC0etXuEol2k-50" value="" style="endArrow=classic;html=1;rounded=0;exitX=0;exitY=0.5;exitDx=0;exitDy=0;entryX=0.25;entryY=0.931;entryDx=0;entryDy=0;entryPerimeter=0;" edge="1" parent="1" source="N1I75fCflC0etXuEol2k-22" target="N1I75fCflC0etXuEol2k-2">
          <mxGeometry width="50" height="50" relative="1" as="geometry">
            <mxPoint x="510" y="390" as="sourcePoint" />
            <mxPoint x="560" y="340" as="targetPoint" />
            <Array as="points">
              <mxPoint x="470" y="330" />
              <mxPoint x="420" y="260" />
              <mxPoint x="430" y="200" />
            </Array>
          </mxGeometry>
        </mxCell>
        <mxCell id="N1I75fCflC0etXuEol2k-51" value="trip not found" style="text;html=1;align=center;verticalAlign=middle;whiteSpace=wrap;rounded=0;" vertex="1" parent="1">
          <mxGeometry x="430" y="260" width="60" height="30" as="geometry" />
        </mxCell>
        <mxCell id="N1I75fCflC0etXuEol2k-52" value="" style="endArrow=classic;html=1;rounded=0;entryX=0;entryY=0.5;entryDx=0;entryDy=0;exitX=0.25;exitY=1;exitDx=0;exitDy=0;" edge="1" parent="1" source="N1I75fCflC0etXuEol2k-4" target="N1I75fCflC0etXuEol2k-5">
          <mxGeometry width="50" height="50" relative="1" as="geometry">
            <mxPoint x="800" y="390" as="sourcePoint" />
            <mxPoint x="850" y="340" as="targetPoint" />
          </mxGeometry>
        </mxCell>
        <mxCell id="N1I75fCflC0etXuEol2k-53" value="Calls" style="text;html=1;align=center;verticalAlign=middle;whiteSpace=wrap;rounded=0;" vertex="1" parent="1">
          <mxGeometry x="750" y="365" width="60" height="30" as="geometry" />
        </mxCell>
        <mxCell id="N1I75fCflC0etXuEol2k-54" value="" style="endArrow=classic;html=1;rounded=0;exitX=0.313;exitY=0.013;exitDx=0;exitDy=0;exitPerimeter=0;entryX=1;entryY=0;entryDx=0;entryDy=0;" edge="1" parent="1" source="N1I75fCflC0etXuEol2k-5" target="N1I75fCflC0etXuEol2k-2">
          <mxGeometry width="50" height="50" relative="1" as="geometry">
            <mxPoint x="800" y="390" as="sourcePoint" />
            <mxPoint x="850" y="340" as="targetPoint" />
            <Array as="points">
              <mxPoint x="830" y="120" />
            </Array>
          </mxGeometry>
        </mxCell>
        <mxCell id="N1I75fCflC0etXuEol2k-55" value="requests ID from" style="text;html=1;align=center;verticalAlign=middle;whiteSpace=wrap;rounded=0;" vertex="1" parent="1">
          <mxGeometry x="820" y="320" width="60" height="30" as="geometry" />
        </mxCell>
        <mxCell id="N1I75fCflC0etXuEol2k-56" value="" style="endArrow=classic;html=1;rounded=0;entryX=1;entryY=0.5;entryDx=0;entryDy=0;" edge="1" parent="1" target="N1I75fCflC0etXuEol2k-2">
          <mxGeometry width="50" height="50" relative="1" as="geometry">
            <mxPoint x="920" y="400" as="sourcePoint" />
            <mxPoint x="970" y="350" as="targetPoint" />
            <Array as="points">
              <mxPoint x="840" y="40" />
            </Array>
          </mxGeometry>
        </mxCell>
        <mxCell id="N1I75fCflC0etXuEol2k-58" value="confirms deletion to" style="text;html=1;align=center;verticalAlign=middle;whiteSpace=wrap;rounded=0;" vertex="1" parent="1">
          <mxGeometry x="900" y="280" width="60" height="30" as="geometry" />
        </mxCell>
        <mxCell id="N1I75fCflC0etXuEol2k-59" value="" style="endArrow=classic;html=1;rounded=0;exitX=1;exitY=0;exitDx=0;exitDy=0;entryX=0.644;entryY=0.031;entryDx=0;entryDy=0;entryPerimeter=0;" edge="1" parent="1" source="N1I75fCflC0etXuEol2k-5" target="N1I75fCflC0etXuEol2k-2">
          <mxGeometry width="50" height="50" relative="1" as="geometry">
            <mxPoint x="800" y="390" as="sourcePoint" />
            <mxPoint x="850" y="340" as="targetPoint" />
            <Array as="points">
              <mxPoint x="970" y="400" />
              <mxPoint x="1000" y="230" />
              <mxPoint x="890" y="10" />
            </Array>
          </mxGeometry>
        </mxCell>
        <mxCell id="N1I75fCflC0etXuEol2k-60" value="Trip not found" style="text;html=1;align=center;verticalAlign=middle;whiteSpace=wrap;rounded=0;" vertex="1" parent="1">
          <mxGeometry x="980" y="340" width="60" height="30" as="geometry" />
        </mxCell>
        <mxCell id="N1I75fCflC0etXuEol2k-61" value="" style="endArrow=classic;html=1;rounded=0;entryX=0.019;entryY=0.656;entryDx=0;entryDy=0;entryPerimeter=0;" edge="1" parent="1" target="N1I75fCflC0etXuEol2k-2">
          <mxGeometry width="50" height="50" relative="1" as="geometry">
            <mxPoint x="125" y="360" as="sourcePoint" />
            <mxPoint x="175" y="310" as="targetPoint" />
            <Array as="points">
              <mxPoint x="260" y="170" />
            </Array>
          </mxGeometry>
        </mxCell>
        <mxCell id="N1I75fCflC0etXuEol2k-62" value="Confirms creation to" style="text;html=1;align=center;verticalAlign=middle;whiteSpace=wrap;rounded=0;" vertex="1" parent="1">
          <mxGeometry x="170" y="300" width="60" height="30" as="geometry" />
        </mxCell>
      </root>
    </mxGraphModel>
  </diagram>
</mxfile>
